<svg width="314" height="314" viewBox="0 0 314 314" fill="none" xmlns="http://www.w3.org/2000/svg">
<mask id="mask0_1298_14031" style="mask-type:alpha" maskUnits="userSpaceOnUse" x="0" y="0" width="314" height="314">
<circle cx="157" cy="157" r="157" fill="#0E1235"/>
</mask>
<g mask="url(#mask0_1298_14031)">
<circle cx="157" cy="157" r="157" fill="#050A1B"/>
<path d="M99.64 138.72V156H94.72V138.66L77.92 113.28H83.68L97.24 134.28L110.8 113.28H116.44L99.64 138.72ZM144.125 134.04C146.645 134.76 148.565 136 149.885 137.76C151.205 139.52 151.865 141.74 151.865 144.42C151.865 148.14 150.605 151.08 148.085 153.24C145.565 155.36 142.145 156.42 137.825 156.42C135.065 156.42 132.405 155.96 129.845 155.04C127.325 154.12 125.185 152.82 123.425 151.14L125.345 147.36C129.305 150.64 133.425 152.28 137.705 152.28C140.745 152.28 143.045 151.6 144.605 150.24C146.205 148.88 147.005 146.88 147.005 144.24C147.005 139 143.725 136.38 137.165 136.38H132.245V132.24H136.205C139.365 132.24 141.785 131.54 143.465 130.14C145.145 128.74 145.985 126.74 145.985 124.14C145.985 121.82 145.285 120.04 143.885 118.8C142.525 117.56 140.585 116.94 138.065 116.94C133.985 116.94 129.945 118.58 125.945 121.86L124.085 118.08C125.805 116.44 127.905 115.16 130.385 114.24C132.905 113.28 135.525 112.8 138.245 112.8C142.085 112.8 145.145 113.78 147.425 115.74C149.745 117.7 150.905 120.34 150.905 123.66C150.905 126.1 150.305 128.24 149.105 130.08C147.905 131.92 146.245 133.24 144.125 134.04ZM184.902 134.04C187.422 134.76 189.342 136 190.662 137.76C191.982 139.52 192.642 141.74 192.642 144.42C192.642 148.14 191.382 151.08 188.862 153.24C186.342 155.36 182.922 156.42 178.602 156.42C175.842 156.42 173.182 155.96 170.622 155.04C168.102 154.12 165.962 152.82 164.202 151.14L166.122 147.36C170.082 150.64 174.202 152.28 178.482 152.28C181.522 152.28 183.822 151.6 185.382 150.24C186.982 148.88 187.782 146.88 187.782 144.24C187.782 139 184.502 136.38 177.942 136.38H173.022V132.24H176.982C180.142 132.24 182.562 131.54 184.242 130.14C185.922 128.74 186.762 126.74 186.762 124.14C186.762 121.82 186.062 120.04 184.662 118.8C183.302 117.56 181.362 116.94 178.842 116.94C174.762 116.94 170.722 118.58 166.722 121.86L164.862 118.08C166.582 116.44 168.682 115.16 171.162 114.24C173.682 113.28 176.302 112.8 179.022 112.8C182.862 112.8 185.922 113.78 188.202 115.74C190.522 117.7 191.682 120.34 191.682 123.66C191.682 126.1 191.082 128.24 189.882 130.08C188.682 131.92 187.022 133.24 184.902 134.04ZM217.398 117.48H202.518V113.28H237.258V117.48H222.378V156H217.398V117.48Z" fill="#FAF6EB"/>
<circle cx="157" cy="157" r="121" stroke="#FAF6EB" stroke-width="8"/>
<path d="M193 191C156.051 191 145.184 191 122 191C122 211.435 137.894 228 157.5 228C177.106 228 193 211.435 193 191Z" fill="#38A169" stroke="#38A169" stroke-width="5"/>
<line x1="157" y1="173" x2="157" y2="213" stroke="#050A1B" stroke-width="6" stroke-linecap="round"/>
</g>
</svg>
